/* XPM */
static char *_90e0cabcc6242eecb4afecc8c520a207FHe78l2ZPQA62jK[] = {
/* columns rows colors chars-per-pixel */
"64 65 51 1 ",
"  c None",
". c #DE8918",
"X c #E18A16",
"o c #EB8D17",
"O c #E38D18",
"+ c #E98F19",
"@ c #F68F13",
"# c #EB9119",
"$ c #F79116",
"% c #F7931A",
"& c #F8941A",
"* c #F79723",
"= c #F79826",
"- c #F89927",
"; c #F89A2B",
": c #F89E32",
"> c #F8A036",
", c #F8A23B",
"< c #F8A643",
"1 c #F9A847",
"2 c #F9A94B",
"3 c #F9AD52",
"4 c #F9B057",
"5 c #F9B25C",
"6 c #FAB562",
"7 c #FAB768",
"8 c #FAB96D",
"9 c #FABD74",
"0 c #FBC17C",
"q c #FBC585",
"w c #FBC789",
"e c #FBC88D",
"r c #FBCC94",
"t c #FCCF9B",
"y c #FCD09E",
"u c #FCD3A2",
"i c #FCD6AA",
"p c #FCD9AE",
"a c #FCDAB2",
"s c #FDDEB9",
"d c #FDE0BE",
"f c #FDE2C3",
"g c #FDE6CB",
"h c #FDE8CF",
"j c #FEEAD4",
"k c #FEEEDC",
"l c #FEF0DF",
"z c #FEF2E4",
"x c #FEF6EC",
"c c #FFFAF4",
"v c #FFFFFF",
/* pixels */
"                            %%%%%%%%                            ",
"                       %%%%&%%%%&%%%&&%%&                       ",
"                    &%%%%%%%%%%%%%%%%%%%%%*%                    ",
"                  &%&&%%%%%%%%%%%%%%%%%%%%&%&&                  ",
"                %%%%%%%%%%%&%%%%%%%%&%%%%%%%%%%%                ",
"               %%%%%%%%%%&%%%%%*%&%%%%%%%%%%%%%%&               ",
"             %%%%%%%%%%%%%%%%%%&%%%%%%%%%%%%%%%%&&%             ",
"            &%%%%%%%%%%%%%%%%%%%%%%%%&%%%%%%%%%%&&%%            ",
"           &&%%%%%%%%&%%%%%%%%%%%%&%%%%%%%%%%%%%%%%&%           ",
"          &%&&%%%%%%%%%%%%%%%%%%%%%%%%%%&%%%%%%%%%%%%&          ",
"         &&%%%%%%%%%%%%%%%%%%%%%%%%%%%%%%%%%%%%%%%%%%%%         ",
"        &&&&%%%&&%%%%%%%%%%%%%%%%%%%&%%%%%%%%%%%%%%%%%%%        ",
"       &%%%%%%%%&&&%%%%%%%%%%%%%&%%%%%%%%%%%%%%%%%%%%%%%&       ",
"      $%%%%%%%%&&&&%%%%%%%%%%%%%%%%&%%%%%%%%%%%%&%%%%%%%%%      ",
"      &%%%%%%%%%&&%%%%%%%%%%%%%%%%%%%%%%%%%%%%%%&%%%%%%%%%      ",
"     %&%%%%%%%%%@%%%%%%%%%%%%%%%%%%%%%&%%%%%%%%%%%%%%%%%%%%     ",
"    $%%%%%%*%%$%4<%%%%%%%%%%%%%%%%&&%%%%%%%%%%%%%%%%&%%%%%%%    ",
"    $%%%%%%rfq31zu6r:$%%%%%%%%%%%$&&%%%&%%%%%%%%%%%%%%%%%%%%    ",
"   %%%%%%%-jvvczvadx:%%%%%%&%%%%%%&&%%%%%%%%%%%%%%%%%%%%%%%%%   ",
"   &%%%%%%2cvvvvvvvz5%%%%%%&%%%%%%&&%%%%%%%%%%%%%%%&%%%%%&%%%   ",
"   %%%%%%$0vvvkxvvvvcq%%%*:&$%%%%%%%%%%%%%%%%%%%%%%%%%&%%%%%%   ",
"  $%%%%%%%avvx1<9ixvvc8$%6ka01*%%%%%%&%%%%%%%%%%%%%%%&%%%%%%%%  ",
"  %%&%%%%;kvvf*@@%3lvvh;$uvvvc9$%%%%%%%%%%%%%%%%%%%%%%%%%%%%%%  ",
"  %%%%%%%4cvve$%%%@wvvc2*jvvvvr$%%%%%%%%@%%%%%%%%&%%%%%%%%%%%&  ",
" #&&&%%%$evvc5%%%%@8vvv51cvvvvu$%%%%%&;93;%$%%%%%%%%%%%%%%%%%%% ",
" &&&%%%%%dvvz:@%%%$tvvc29vvvvvp%%%%%%%evcjp6%%%%%%%$%%%%%%%%%%% ",
" %&&%%%$:zvvxu7,**4zvvk:ivvzcvf%%%%%$3xvvvvy%%%%$$$$$%%%%%%%%%& ",
" %%&%%%$6vvvvvvxgfcvvvr;kvvizvg*%%%%;gvvvvv8@%%;6qr03=$$%%%%%%& ",
"#&%%%%%$rvvvcvvvvvvvvf;3cvc9kvk;%%%$rvvvvvx,%%8jvvvvcg9*$%%%%%&#",
"#&%%%%%*gvvkqvlxvvvzt:$qvvx1hvz:$%$5cvczvvf%%qcvvvvvvvvu-%%%%%&+",
"+%%%%%&<xvvi8x8jj63:%$%svvg;fvx,$%:hvvijvvr@8cvvcpeukvvvr%%%%%&+",
"+%%&%%$8vvv9*2,pq@$%%%:zvvu%avc1$%tvvf8cvc5;jvvc8%$%:pvvx2%&%&&O",
"+%%%%%&uvvx2$$&**%%%%@5vvv9@yvc4@6cvx3evvz;9vvvt%%%%$,zvvw$%%%&X",
"+%%%%%-hvvh=&&&%%%%%%$rvvc3@rvv6:jvvw=hvvs*dvvx1%%%%$*gvvi%%%%&+",
"+%%%%&*6yjr$&&%%%%%%%*fvvk:@qvv9yvvs=2cvvq:xvvd%%%%%%*ixvs%%%&&+",
"+%%%%%&&$-;$&&%%%%%%$,zvva%@8vvgcvz2@qvvc26vvvq$%%%%&&*<96%%%&$+",
" %%%%%%%%%%%%%%%%%%%@8vvv9%%6vvvvv9%*fvvk=evvc3@%%%%%%%$$%%%%%& ",
" %%%%%%%%%%%%%%%%%%%$tvvc1%@3cvvva=@<xvvp%ivvz:%%%%%%%%%%%%%%%& ",
" %%%%%%%%%%%%%%%%%%%%,9ia;%$<xvvk<@%8vvv9%pvvj=%%%%%%%%%%%%%%%% ",
" #%%%%%%%%%%%%%%%%%%%%$%=%%%:zvc8@%%uvvc1$uvvh=%%%%%$$$%%%%%%&# ",
" +%%%%%%%%&&&%%%%%%%%%%%%%%%*5tw*%&-hvvh-@0vvz,$%%%%69,=%%%%%&# ",
"  %%%%%%%%%&%%%%%%%%%%%%%%%&%$$%%%@<xvvy%%1xvvu=$$$,lvcp*%%%%&  ",
"  %%%%%%%%%%%%%%%%%%%%%%%%&%%%%%%%%=10a6@%%tvvvf059gvvvr%%%%%%  ",
"  +&%%%%%%%&%%%%%%%%%%%%%%%%%%%%%%%%&&&&&%%;avvvvvvvvvf;$%%%%#  ",
"   %%%%%%%%%%%%%%%%%%%%%%%%%%%%%%%%%%%%%&%%$;rxvvvvvva,$%%&&%   ",
"   #%%%%%%%%%&%%%%%%%%%%%%%%%%%%%%%%%%%%%%%%$$:9yssy5*$%%%&&#   ",
"    %%%%%%%%%%%%&%%%%%%%&%%%%%%%%%%%%%%%%%&%%%%$%%%%$%%%%&&&    ",
"    #%%%%&%%%%%%%%%&%%%%%%%%%%%%%%%%%%%%%%%%%&%%%%%%%%%%%%&#    ",
"     &&%%%%%%%%%%%%%%%%%%%%%%%%%%%%%%%%%&&%%%%%%%%%%%%%%%%&     ",
"     #&&%%%%%&%%&%%%%%%%%%%%%%%%%%%%%%%%&&*%%%%%%%%%%%%%%%#     ",
"      #%%%%%%%%%%%%%%%%%%%%%%%%%%%%%%%%%%%%%%%%%%%%%%%%%%#      ",
"       &%&%%%%%%%%%%&%%%%%%%%%%%%%%%%%%%%%%%%%%%%%%%%%%%%       ",
"        %%%%%%%%%&&%%%%%%%%%%%%%%%%%%%%%%%%%%%%%%%%%%%%%        ",
"        #%%&%%%%%%&%%%%%%%%%%%%%%%%%%%%%&%%%%%%%%%%%%%&#        ",
"         +%%%%%%%%%%%%*%%%%%%%%%%%%%%%%%%%%%%%%%%%%%%&+         ",
"          +%%%%%%%%%%%%%%%%%%%%%%%%%%%%%%%%%%%%%%%%%&+          ",
"           +%*&&%%&%%%%%$*%%%%%%%%%%%%%%%%%%%%%%&&&&+           ",
"             #&&%%%%%%%%%%%%%%%%%%%%%&%%%%%%%%%%&&#             ",
"              #&&&%%%%&%%%%%%%%%%%%%&%%%%%%%%%%%&#              ",
"                #%%%%%%%%%%%%%%%%%%%%%%%%%%%%%&%                ",
"                 O%%%%%&%%%%%%%%%%%&%%%%&&&%&%O                 ",
"                   .#%%&%%%%%%%%%%%&%%%%&&%#.                   ",
"                      O#%%&&%%%%%%&&%%%%#O                      ",
"                          X++%+%+%#++O                          ",
"                                                                "
};
