/* XPM */
static char *_684a152c45743b1df63a313aa5ad893AKW086pjf17m0plc[] = {
/* columns rows colors chars-per-pixel */
"16 16 158 2 ",
"   c None",
".  c #975D17",
"X  c #99611F",
"o  c #B7731A",
"O  c #BF761C",
"+  c #A66F2B",
"@  c #AE742E",
"#  c #BE7A21",
"$  c #AC7A3D",
"%  c #CA7611",
"&  c #CF7E17",
"*  c #C97E1E",
"=  c #D07F17",
"-  c #F46A00",
";  c #F46D00",
":  c #F56E00",
">  c #F56F00",
",  c #E77B00",
"<  c #E77E00",
"1  c #E77B04",
"2  c #E27D06",
"3  c #F57E00",
"4  c #D3811C",
"5  c #F68200",
"6  c #F68300",
"7  c #F58400",
"8  c #F68600",
"9  c #F68304",
"0  c #FE8700",
"q  c #F58805",
"w  c #F68804",
"e  c #F68904",
"r  c #F68906",
"t  c #F78906",
"y  c #F68907",
"u  c #FF8B00",
"i  c #F68B08",
"p  c #F68A09",
"a  c #F78D0D",
"s  c #F68D0F",
"d  c #F78E0F",
"f  c #FF9000",
"g  c #FE9100",
"h  c #FF9400",
"j  c #FF9B01",
"k  c #FF9904",
"l  c #FF9907",
"z  c #FF900B",
"x  c #FF910F",
"c  c #FF960F",
"v  c #FF9D09",
"b  c #FF9C0D",
"n  c #FF9D0D",
"m  c #EC8C10",
"M  c #ED8E10",
"N  c #F78E10",
"B  c #F78E15",
"V  c #F79013",
"C  c #F79014",
"Z  c #F79117",
"A  c #F69217",
"S  c #F79217",
"D  c #FC9515",
"F  c #FE9716",
"G  c #FF9B16",
"H  c #F79319",
"J  c #F6921A",
"K  c #F7921A",
"L  c #F7931A",
"P  c #F7921B",
"I  c #F7931B",
"U  c #F7941B",
"Y  c #F7941C",
"T  c #F7951D",
"R  c #F7961E",
"E  c #F89218",
"W  c #F99319",
"Q  c #F8921A",
"!  c #FC9618",
"~  c #FF9718",
"^  c #FF9719",
"/  c #FF9F19",
"(  c #FFA112",
")  c #FFA511",
"_  c #FFA610",
"`  c #FFA712",
"'  c #FFA014",
"]  c #FFA315",
"[  c #FFA915",
"{  c #FFAF16",
"}  c #FFA719",
"|  c #FFA01C",
" . c #FFA11C",
".. c #CF8325",
"X. c #D18120",
"o. c #F79620",
"O. c #F79927",
"+. c #FCA025",
"@. c #F1A02E",
"#. c #FFAA37",
"$. c #F8A33B",
"%. c #FCA539",
"&. c #F8A43E",
"*. c #B98340",
"=. c #C58941",
"-. c #D79C59",
";. c #F8A541",
":. c #F9AC4F",
">. c #FFB04C",
",. c #F9AC51",
"<. c #FFB552",
"1. c #FAB563",
"2. c #FFBA64",
"3. c #FAB96B",
"4. c #FABA6E",
"5. c #FABD73",
"6. c #FABE74",
"7. c #FABE75",
"8. c #FAC17B",
"9. c #FBC37F",
"0. c #FAC586",
"q. c #FBC786",
"w. c #FBC98B",
"e. c #FFD08F",
"r. c #FBCB91",
"t. c #FBCE97",
"y. c #FBCE99",
"u. c #FBCE9C",
"i. c #FCD19D",
"p. c #FCD4A3",
"a. c #FCD5A7",
"s. c #FCD7A9",
"d. c #FCD7AC",
"f. c #FCD8AC",
"g. c #FCD8AD",
"h. c #FCD9AE",
"j. c #FCD9AF",
"k. c #FCDAB0",
"l. c #FCDAB3",
"z. c #FDDCB8",
"x. c #FDDFBB",
"c. c #FDE0BD",
"v. c #FDE1BF",
"b. c #FDE1C0",
"n. c #FDE3C4",
"m. c #FDE5C9",
"M. c #FDE7CC",
"N. c #FCE7CE",
"B. c #FEE9D0",
"V. c #FDE9D2",
"C. c #FDEBD5",
"Z. c #FEF1E2",
"A. c #FEF2E3",
"S. c #FEF4E7",
"D. c #FEF5EB",
"F. c #FEF9F2",
"G. c #FFFCF9",
"H. c white",
/* pixels */
"          E E H H Y E           ",
"      +.F H H Y H H E ! @.      ",
"    O ' A H H H Y H H H / *     ",
"  *.j t t a H A Y H Y H B [ -.  ",
"  z %.N.V.O.3 t R V a H H F c   ",
"+ 0 g.g.8.k.y.y.9 i H B 5 t ( @ ",
"% h Z.x.q.C.H.Z.; a.n.a 6.$.g 4 ",
"< >.G.b.u.3.D.5.:.H.v.s.l.S.2., ",
"2 <.0.5 - l.M.p.V.f.F.v.; 3.e.1 ",
"..k 5 B p 6.&.v.w.i.H.r.; A n X.",
"$ b H Y R 8 9 A R 1.,.m.s.z.v X ",
"  ! G H H H Y N B 8 5 ;.0.#.D   ",
"    ` ! H H Y Y H Y H e u u     ",
"    . { / Y H H H H Y  .k =.    ",
"        M ` ' | | } [ M         ",
"            # & & o             "
};
